<?xml version="1.0" encoding="UTF-8"?>
<svg width="800" height="600" viewBox="0 0 800 600" fill="none" xmlns="http://www.w3.org/2000/svg">
  <!-- Background -->
  <rect width="800" height="600" rx="10" fill="#F8FAFC"/>
  
  <!-- Dashboard Frame -->
  <rect x="50" y="50" width="700" height="500" rx="8" fill="white" stroke="#E2E8F0" stroke-width="2"/>
  
  <!-- Header -->
  <rect x="50" y="50" width="700" height="60" rx="8" fill="#4A6CF7" />
  <text x="80" y="85" font-family="Arial" font-size="18" font-weight="bold" fill="white">Payroll Input System</text>
  
  <!-- Sidebar -->
  <rect x="50" y="110" width="180" height="440" fill="#F1F5F9" />
  
  <!-- Sidebar Menu Items -->
  <rect x="65" y="140" width="150" height="40" rx="4" fill="#4A6CF7" opacity="0.1"/>
  <text x="95" y="165" font-family="Arial" font-size="14" fill="#1E293B">Dashboard</text>
  
  <text x="95" y="215" font-family="Arial" font-size="14" fill="#64748B">Employees</text>
  <text x="95" y="265" font-family="Arial" font-size="14" fill="#64748B">Payroll Inputs</text>
  <text x="95" y="315" font-family="Arial" font-size="14" fill="#64748B">Approvals</text>
  <text x="95" y="365" font-family="Arial" font-size="14" fill="#64748B">Reports</text>
  <text x="95" y="415" font-family="Arial" font-size="14" fill="#64748B">Settings</text>
  
  <!-- Main Content -->
  <text x="260" y="145" font-family="Arial" font-size="20" font-weight="bold" fill="#1E293B">Payroll Dashboard</text>
  
  <!-- Stats Cards -->
  <rect x="260" y="165" width="150" height="100" rx="8" fill="white" stroke="#E2E8F0" stroke-width="2"/>
  <text x="280" y="195" font-family="Arial" font-size="12" fill="#64748B">Total Employees</text>
  <text x="280" y="225" font-family="Arial" font-size="24" font-weight="bold" fill="#1E293B">128</text>
  
  <rect x="430" y="165" width="150" height="100" rx="8" fill="white" stroke="#E2E8F0" stroke-width="2"/>
  <text x="450" y="195" font-family="Arial" font-size="12" fill="#64748B">Processing</text>
  <text x="450" y="225" font-family="Arial" font-size="24" font-weight="bold" fill="#1E293B">24</text>
  
  <rect x="600" y="165" width="150" height="100" rx="8" fill="white" stroke="#E2E8F0" stroke-width="2"/>
  <text x="620" y="195" font-family="Arial" font-size="12" fill="#64748B">Completed</text>
  <text x="620" y="225" font-family="Arial" font-size="24" font-weight="bold" fill="#1E293B">104</text>
  
  <!-- Chart Section -->
  <rect x="260" y="285" width="320" height="200" rx="8" fill="white" stroke="#E2E8F0" stroke-width="2"/>
  <text x="280" y="315" font-family="Arial" font-size="16" font-weight="bold" fill="#1E293B">Monthly Payroll Trends</text>
  
  <!-- Simple Bar Chart -->
  <rect x="290" y="385" width="30" height="60" rx="2" fill="#4A6CF7" opacity="0.2"/>
  <rect x="330" y="365" width="30" height="80" rx="2" fill="#4A6CF7" opacity="0.4"/>
  <rect x="370" y="345" width="30" height="100" rx="2" fill="#4A6CF7" opacity="0.6"/>
  <rect x="410" y="325" width="30" height="120" rx="2" fill="#4A6CF7" opacity="0.8"/>
  <rect x="450" y="335" width="30" height="110" rx="2" fill="#4A6CF7"/>
  <rect x="490" y="355" width="30" height="90" rx="2" fill="#4A6CF7" opacity="0.7"/>
  
  <line x1="290" y1="445" x2="520" y2="445" stroke="#E2E8F0" stroke-width="2"/>
  
  <!-- Recent Activity Table -->
  <rect x="260" y="505" width="490" height="35" rx="4" fill="#F8FAFC"/>
  <text x="280" y="527" font-family="Arial" font-size="14" font-weight="bold" fill="#1E293B">Recent Activities</text>
  
  <rect x="600" y="285" width="150" height="200" rx="8" fill="white" stroke="#E2E8F0" stroke-width="2"/>
  <text x="615" y="315" font-family="Arial" font-size="16" font-weight="bold" fill="#1E293B">Status</text>
  
  <!-- Pie Chart -->
  <circle cx="675" cy="385" r="60" fill="transparent" stroke="#E2E8F0" stroke-width="2"/>
  <path d="M675 385 L675 325 A60 60 0 0 1 729 412 Z" fill="#4A6CF7"/>
  <path d="M675 385 L729 412 A60 60 0 0 1 621 412 Z" fill="#ff6b6b"/>
  <path d="M675 385 L621 412 A60 60 0 0 1 675 325 Z" fill="#E2E8F0"/>
  
  <!-- Navigation Icons -->
  <circle cx="700" y="80" r="15" fill="white" opacity="0.2"/>
  <circle cx="740" y="80" r="15" fill="white" opacity="0.2"/>
</svg>