<?xml version="1.0" encoding="UTF-8"?>
<svg width="800" height="450" viewBox="0 0 800 450" xmlns="http://www.w3.org/2000/svg">
  <rect width="100%" height="100%" fill="#4169E1" fill-opacity="0.1"/>
  
  <!-- App Background -->
  <rect x="100" y="50" width="600" height="350" rx="8" fill="#FFFFFF" stroke="#4169E1" stroke-width="2"/>
  
  <!-- Header -->
  <rect x="100" y="50" width="600" height="60" rx="8" fill="#4169E1"/>
  <text x="150" y="85" font-family="Arial" font-size="20" font-weight="bold" fill="#FFFFFF">SupportZone Dashboard</text>
  
  <!-- Sidebar -->
  <rect x="100" y="110" width="150" height="290" fill="#F5F5F5"/>
  <rect x="120" y="140" width="110" height="30" rx="4" fill="#4169E1" fill-opacity="0.8"/>
  <text x="135" y="160" font-family="Arial" font-size="12" fill="#FFFFFF">Incidents</text>
  <rect x="120" y="180" width="110" height="30" rx="4" fill="#FFFFFF" stroke="#4169E1" stroke-width="1"/>
  <text x="135" y="200" font-family="Arial" font-size="12" fill="#4169E1">Reports</text>
  <rect x="120" y="220" width="110" height="30" rx="4" fill="#FFFFFF" stroke="#4169E1" stroke-width="1"/>
  <text x="135" y="240" font-family="Arial" font-size="12" fill="#4169E1">Analytics</text>
  <rect x="120" y="260" width="110" height="30" rx="4" fill="#FFFFFF" stroke="#4169E1" stroke-width="1"/>
  <text x="135" y="280" font-family="Arial" font-size="12" fill="#4169E1">Settings</text>
  
  <!-- Main Content -->
  <rect x="270" y="130" width="410" height="250" rx="4" fill="#FFFFFF" stroke="#EEEEEE" stroke-width="1"/>
  <text x="290" y="160" font-family="Arial" font-size="18" font-weight="bold" fill="#333333">Open Incidents</text>
  
  <!-- Incident Cards -->
  <rect x="290" y="180" width="370" height="60" rx="4" fill="#F9F9F9" stroke="#EEEEEE" stroke-width="1"/>
  <text x="310" y="205" font-family="Arial" font-size="14" font-weight="bold" fill="#333333">INC0001 - Network Connectivity Issue</text>
  <text x="310" y="225" font-family="Arial" font-size="12" fill="#666666">Priority: High | Status: In Progress</text>
  <rect x="580" y="195" width="60" height="25" rx="12" fill="#FFA500"/>
  <text x="610" y="212" font-family="Arial" font-size="11" text-anchor="middle" fill="#FFFFFF">P1</text>
  
  <rect x="290" y="250" width="370" height="60" rx="4" fill="#F9F9F9" stroke="#EEEEEE" stroke-width="1"/>
  <text x="310" y="275" font-family="Arial" font-size="14" font-weight="bold" fill="#333333">INC0002 - Application Login Failure</text>
  <text x="310" y="295" font-family="Arial" font-size="12" fill="#666666">Priority: Medium | Status: Open</text>
  <rect x="580" y="265" width="60" height="25" rx="12" fill="#4169E1"/>
  <text x="610" y="282" font-family="Arial" font-size="11" text-anchor="middle" fill="#FFFFFF">P2</text>
  
  <rect x="290" y="320" width="370" height="60" rx="4" fill="#F9F9F9" stroke="#EEEEEE" stroke-width="1"/>
  <text x="310" y="345" font-family="Arial" font-size="14" font-weight="bold" fill="#333333">INC0003 - Data Synchronization Error</text>
  <text x="310" y="365" font-family="Arial" font-size="12" fill="#666666">Priority: Low | Status: New</text>
  <rect x="580" y="335" width="60" height="25" rx="12" fill="#008000"/>
  <text x="610" y="352" font-family="Arial" font-size="11" text-anchor="middle" fill="#FFFFFF">P3</text>
</svg>